HIERARCHY
ROOT Hips
{
	OFFSET 0.00000 0.00000 0.00000
	CHANNELS 6 Xposition Yposition Zposition Zrotation Yrotation Xrotation 
	JOINT LHipJoint
	{
		OFFSET 0 0 0
		CHANNELS 3 Zrotation Yrotation Xrotation
		JOINT LeftHip
		{
			OFFSET 1.57093 -1.69714 0.87455
			CHANNELS 3 Zrotation Yrotation Xrotation
			JOINT LeftKnee
			{
				OFFSET 2.48056 -6.81529 0.00000
				CHANNELS 3 Zrotation Yrotation Xrotation
				JOINT LeftAnkle
				{
					OFFSET 2.62558 -7.21374 0.00000
					CHANNELS 3 Zrotation Yrotation Xrotation
					JOINT LeftToe
					{
						OFFSET 0.17911 -0.49210 2.16707
						CHANNELS 3 Zrotation Yrotation Xrotation
						End Site
						{
							OFFSET 0.00000 -0.00000 1.11848
						}
					}
				}
			}
		}
	}
	JOINT RHipJoint
	{
		OFFSET 0 0 0
		CHANNELS 3 Zrotation Yrotation Xrotation
		JOINT RightHip
		{
			OFFSET -1.69739 -1.69715 0.87455
			CHANNELS 3 Zrotation Yrotation Xrotation
			JOINT RightKnee
			{
				OFFSET -2.33658 -6.41972 0.00000
				CHANNELS 3 Zrotation Yrotation Xrotation
				JOINT RightAnkle
				{
					OFFSET -2.60856 -7.16696 0.00000
					CHANNELS 3 Zrotation Yrotation Xrotation
					JOINT RightToe
					{
						OFFSET -0.20854 -0.57296 2.11053
						CHANNELS 3 Zrotation Yrotation Xrotation
						End Site
						{
							OFFSET -0.00000 -0.00000 1.09848
						}
					}
				}
			}
		}
	}
	JOINT lowerback
	{
		OFFSET 0 0 0
		CHANNELS 3 Zrotation Yrotation Xrotation
		JOINT Chest
		{
			OFFSET 0.02563 2.15732 -0.03270
			CHANNELS 3 Zrotation Yrotation Xrotation
			JOINT Chest2
			{
				OFFSET 0.00281 2.14662 0.09285
				CHANNELS 3 Zrotation Yrotation Xrotation
				JOINT lowerneck
				{
					OFFSET 0 0 0
					CHANNELS 3 Zrotation Yrotation Xrotation
					JOINT Neck
					{
						OFFSET -0.04440 1.68397 0.17601
						CHANNELS 3 Zrotation Yrotation Xrotation
						JOINT Head
						{
							OFFSET 0.06040 1.66995 -0.35615
							CHANNELS 3 Zrotation Yrotation Xrotation
							End Site
							{
								OFFSET 0.02405 1.72189 -0.14044
							}
						}
					}
				}
				JOINT LeftCollar
				{
					OFFSET 0 0 0
					CHANNELS 3 Zrotation Yrotation Xrotation
					JOINT LeftShoulder
					{
						OFFSET 2.98955 1.90907 -0.21660
CHANNELS 3 Zrotation Xrotation Yrotation
						JOINT LeftElbow
						{
OFFSET 0 -4.913770 0.000000
CHANNELS 3 Zrotation Xrotation Yrotation
							JOINT LeftWrist
							{
OFFSET 0 -3.002910 -0.000000
CHANNELS 3 Zrotation Xrotation Yrotation
								JOINT lhand
								{
									OFFSET 0 0 0
CHANNELS 3 Zrotation Xrotation Yrotation
									JOINT LFingers
									{
OFFSET 0 -0.450920 -0.000000
CHANNELS 3 Zrotation Xrotation Yrotation
										End Site
										{
OFFSET 0 -0.363550 -0.000000
										}
									}
								}
								JOINT LThumb
								{
OFFSET 0 0.000000 0.000000
CHANNELS 3 Zrotation Xrotation Yrotation
									End Site
									{
OFFSET 0 -0.369100 0.369100
									}
								}
							}
						}
					}
				}
				JOINT RightCollar
				{
					OFFSET 0 0 0
					CHANNELS 3 Zrotation Yrotation Xrotation
					JOINT RightShoulder
					{
						OFFSET -2.80452 1.90886 -0.21152
CHANNELS 3 Zrotation Xrotation Yrotation
						JOINT RightElbow
						{
OFFSET 0 -4.867250 0.000000
CHANNELS 3 Zrotation Xrotation Yrotation
							JOINT RightWrist
							{
OFFSET 0 -3.171440 -0.000000
CHANNELS 3 Zrotation Xrotation Yrotation
								JOINT rhand
								{
									OFFSET 0 0 0
CHANNELS 3 Zrotation Xrotation Yrotation
									JOINT RFingers
									{
OFFSET 0 -0.419370 -0.000000
CHANNELS 3 Zrotation Xrotation Yrotation
										End Site
										{
OFFSET 0 -0.338100 -0.000000
										}
									}
								}
								JOINT RThumb
								{
OFFSET 0 0.000000 0.000000
CHANNELS 3 Zrotation Xrotation Yrotation
									End Site
									{
OFFSET 0 -0.343270 0.343270
									}
								}
							}
						}
					}
				}
			}
		}
	}
}
MOTION
Frames: 5
Frame Time: 0.008333333333333333
7.736100 9.021100 12.886000 179.843000 -0.925300 100.146000 0.000000 0.000000 0.000000 -26.788400 -7.676600 8.374400 1.836400 8.516600 24.294500 0.049400 1.230600 -4.841500 2.354600 -9.568700 -27.590900 0.000000 0.000000 0.000000 20.315800 12.861000 3.159400 -1.176200 -6.883600 19.371100 0.472900 -12.670700 -0.578500 -0.489100 -4.484400 12.443700 -1.237000 -0.684800 -3.509100 2.375300 -2.492100 -13.568300 3.575800 -1.438200 -12.532900 -1.380500 -2.469900 -22.410100 -4.262100 0.077400 42.523800 -1.380000 0.622800 20.775800 -0.000000 0.000000 0.000000 180.355600 13.512700 6.668800 22.635700 -33.688000 6.935200 25.533400 -83.029200 -9.287300 0.000000 0.000000 0.000000 -7.125000 0.000000 0.000000 -1.243600 40.248800 -0.145700 -0.000000 0.000000 0.000000 -182.201500 15.330000 -35.201900 -21.902500 -32.866700 -6.532900 -17.405200 -61.931100 17.900100 0.000000 0.000000 0.000000 7.125000 0.000000 -0.000000 10.318700 48.405500 -0.875500
7.733627 8.997828 12.778935 179.895945 -0.611031 93.917451 0.000000 0.000000 0.000000 -27.627802 -3.766804 17.125401 1.678782 8.162253 23.207982 0.005350 1.046212 -2.105180 2.554862 -9.936890 -28.772771 0.000000 0.000000 0.000000 22.075698 10.355612 9.582457 -0.996247 -6.351826 17.808865 0.490196 -12.962743 -0.384980 -0.460647 -4.353799 12.074251 -0.698251 -0.307043 3.560682 2.287802 -1.376675 -12.169655 3.275713 -0.737329 -15.376366 -4.177200 -1.127283 -21.188895 -1.425618 -0.783845 42.659608 -0.747745 -2.790636 20.519899 0.000000 0.000000 0.000000 175.236538 9.156709 21.730468 22.127490 -33.120725 6.655444 23.209637 -69.095429 -11.360859 0.000000 0.000000 0.000000 -7.125000 0.000000 0.000000 -3.541768 42.284194 -0.235829 0.000000 0.000000 0.000000 -183.501571 14.611803 -33.106739 -21.652433 -32.581989 -6.397655 -17.580439 -61.978333 17.911187 0.000000 0.000000 0.000000 7.125000 0.000000 0.000000 10.156368 48.442371 -0.870754
7.741605 8.980410 12.623747 179.942581 -0.482179 87.568771 0.000000 0.000000 0.000000 -28.426834 -0.693240 24.699321 1.612213 8.006718 22.734584 0.013474 1.851559 2.213512 2.312587 -9.488583 -27.336199 0.000000 0.000000 0.000000 23.545565 7.718694 16.608349 -0.904636 -6.061179 16.961996 0.529735 -13.225707 -1.201863 -0.470757 -4.400451 12.206081 -0.463899 -0.114820 10.727282 2.295594 -0.569076 -10.583755 3.136972 -0.188324 -18.176709 -5.879369 -1.592233 -20.472476 -0.570214 -1.260620 42.780306 -0.124362 -3.177488 20.443676 0.000000 0.000000 0.000000 171.863320 3.657109 37.397116 21.298962 -32.175425 6.208458 19.563202 -53.774001 -13.148980 0.000000 0.000000 0.000000 -7.125000 0.000000 0.000000 -7.126302 43.788441 -0.213828 0.000000 0.000000 0.000000 -184.595061 14.649876 -30.793534 -21.649795 -32.578942 -6.396227 -17.685294 -63.058300 18.112365 0.000000 0.000000 0.000000 7.125000 0.000000 0.000000 10.118836 48.662521 -0.922802
7.753638 8.968659 12.568890 179.908073 -0.612532 85.929535 0.000000 0.000000 0.000000 -29.014684 -0.253900 25.571131 1.697367 8.204973 23.338457 0.170863 3.020467 7.347543 2.074284 -9.019183 -25.855406 0.000000 0.000000 0.000000 23.737654 6.600820 19.028979 -0.914574 -6.093465 17.055868 0.517163 -13.032422 -1.337192 -0.460520 -4.353094 12.072068 -0.675981 -0.059301 12.687638 2.383785 -0.424055 -10.266939 3.363077 -0.038234 -19.104901 -6.676308 -1.632653 -19.986225 -0.189638 -1.235643 42.941143 0.203733 -3.297659 20.429990 0.000000 0.000000 0.000000 170.822604 2.078213 41.026469 21.510750 -32.419675 6.321555 18.649223 -50.152605 -13.548916 0.000000 0.000000 0.000000 -7.125000 0.000000 0.000000 -8.036353 44.101312 -0.179460 0.000000 0.000000 0.000000 -184.975110 14.343452 -30.459807 -21.630828 -32.557261 -6.386023 -17.592376 -63.247397 18.379720 0.000000 0.000000 0.000000 7.125000 0.000000 0.000000 10.290518 48.920601 -1.004747
7.772582 8.940637 12.520082 180.067766 -0.986773 85.417544 0.000000 0.000000 0.000000 -29.642581 -0.820670 24.188367 1.823420 8.488060 24.206677 0.223554 3.200736 8.398738 2.133200 -9.138000 -26.228086 0.000000 0.000000 0.000000 23.420789 5.593984 20.639835 -1.020383 -6.426113 18.025876 0.467595 -12.216786 -2.136060 -0.749054 -5.524758 15.412489 -1.136391 -0.046382 13.441173 2.302546 -0.498053 -10.256360 3.572056 0.003321 -19.603315 -6.990343 -1.606329 -19.587195 -0.029989 -1.200312 42.999567 0.343062 -3.346625 20.357582 0.000000 0.000000 0.000000 170.569431 0.650607 43.144423 21.293278 -32.169076 6.205345 17.983125 -47.885077 -13.589763 0.000000 0.000000 0.000000 -7.125000 0.000000 0.000000 -8.647757 44.067850 -0.200524 0.000000 0.000000 0.000000 -185.071986 13.710901 -30.702197 -21.548735 -32.463285 -6.341939 -17.415084 -62.771038 18.649999 0.000000 0.000000 0.000000 7.125000 0.000000 0.000000 10.545584 49.168453 -1.095049
